{"title":"Dark.Moon.Rising.2009.DVDRiP.MP4.FEEL-FREE","uid":5645550,"size":1122527154,"categoryP":"video","categoryS":"movies","magnet":"?xt=urn:btih:39634d95b89d6c536005299a9337097e7915eb92&amp;dn=Dark.Moon.Rising.2009.DVDRiP.MP4.FEEL-FREE&amp;tr=udp%3A%2F%2Ftracker.openbittorrent.com%3A80&amp;tr=udp%3A%2F%2Fopen.demonii.com%3A1337&amp;tr=udp%3A%2F%2Ftracker.coppersurfer.tk%3A6969&amp;tr=udp%3A%2F%2Fexodus.desync.com%3A6969","seeders":0,"leechers":0,"uploader":"xenl","files":11,"time":1277278426,"description":"Dark.Moon.Rising.2009.DVDRiP.MP4.FEEL-FREE\n\nGenre:Crime | Horror | Romance | Thriller\nLanguage: English\nIMDb:http://www.imdb.com/title/tt1231593/\nEncoder: Tony2\n...........................................\nGeneral\nComplete name : Dark.Moon.Rising.2009.DVDRiP.MP4.FEEL-FREE\nFormat : MPEG-4\nFormat profile : Base Media\nCodec ID : isom\nFile size : 1.04 GiB\nOverall bit rate : 909 Kbps\n............................................\nVideo\nID : 1\nFormat : AVC\nFormat/Info : Advanced Video Codec\nFormat profile : &lt;a class=&quot;__cf_email__&quot; href=&quot;/cdn-cgi/l/email-protection&quot; data-cfemail=&quot;1459757d7a5458253a27&quot;&gt;[email&amp;#160;protected]&lt;/a&gt;&lt;script cf-hash='f9e31' type=&quot;text/javascript&quot;&gt;\n/* &lt;![CDATA[ */!function(){try{var t=&quot;currentScript&quot;in document?document.currentScript:function(){for(var t=document.getElementsByTagName(&quot;script&quot;),e=t.length;e--;)if(t[e].getAttribute(&quot;cf-hash&quot;))return t[e]}();if(t&amp;&amp;t.previousSibling){var e,r,n,i,c=t.previousSibling,a=c.getAttribute(&quot;data-cfemail&quot;);if(a){for(e=&quot;&quot;,r=parseInt(a.substr(0,2),16),n=2;a.length-n;n+=2)i=parseInt(a.substr(n,2),16)^r,e+=String.fromCharCode(i);e=document.createTextNode(e),c.parentNode.replaceChild(e,c)}}}catch(u){}}();/* ]]&gt; */&lt;/script&gt;\nFormat settings, CABAC : Yes\nFormat settings, ReFrames : 1 frame\nCodec ID : avc1\nCodec ID/Info : Advanced Video Coding\nDuration : 2h 44mn\nBit rate mode : Variable\nBit rate : 776 Kbps\nWidth : 704 pixels\nHeight : 304 pixels\nDisplay aspect ratio : 2.35:1\nFrame rate mode : Constant\nFrame rate : 29.970 fps\nResolution : 24 bits\nColorimetry : 4:2:0\nScan type : Progressive\nBits/(Pixel*Frame) : 0.121\nStream size : 913 MiB (85%)\n.............................................\nAudio\nID : 2\nFormat : AAC\nFormat/Info : Advanced Audio Codec\nFormat version : Version 4\nFormat profile : LC\nFormat settings, SBR : No\nCodec ID : 40\nDuration : 2h 44mn\nBit rate mode : Variable\nBit rate : 128 Kbps\nChannel(s) : 2 channels\nChannel positions : L R\nSampling rate : 44.1 KHz\nResolution : 16 bits\nStream size : 150 MiB (14%)\n...............................................\nPlot:\nSmall-town girl meets mysterious drifter boy, they fall in love. Only in this case, the boy brings with him a family curse and unimaginable horror that rains hell upon the small town\n...................................................","torrent":{"xt":"urn:btih:39634d95b89d6c536005299a9337097e7915eb92","amp;dn":"Dark.Moon.Rising.2009.DVDRiP.MP4.FEEL-FREE","amp;tr":["udp%3A%2F%2Ftracker.openbittorrent.com%3A80","udp%3A%2F%2Fopen.demonii.com%3A1337","udp%3A%2F%2Ftracker.coppersurfer.tk%3A6969","udp%3A%2F%2Fexodus.desync.com%3A6969"],"infoHash":"39634d95b89d6c536005299a9337097e7915eb92","infoHashBuffer":{"type":"Buffer","data":[57,99,77,149,184,157,108,83,96,5,41,154,147,55,9,126,121,21,235,146]},"announce":[],"urlList":[]}}